<svg xmlns="http://www.w3.org/2000/svg" width="800" height="374" viewBox="0 0 800 374">
  <rect width="800" height="374" fill="white"/>
  <rect x="0" y="0" width="800" height="80" fill="#db2777"/>
  <text x="60" y="40" font-family="Inter, sans-serif" font-size="24" font-weight="700" fill="white">1099-DIV</text>
  <text x="60" y="62" font-family="Inter, sans-serif" font-size="13" fill="white" opacity="0.8">Tax Year 2025 · Robert Chen</text>
  <rect x="60" y="100" width="680" height="60" fill="#f8fafc" rx="8"/>
  <text x="80" y="128" font-family="Inter, sans-serif" font-size="11" fill="#64748b" letter-spacing="1">TAXDOX AI · AI-PROCESSED DOCUMENT</text>
  <text x="80" y="146" font-family="Inter, sans-serif" font-size="13" font-weight="600" fill="#1e293b">1099-DIV — Robert Chen</text>
  <text x="640" y="138" font-family="Inter, sans-serif" font-size="11" fill="#94a3b8">2025</text>
  
    <g transform="translate(60, 200)">
      <text x="0" y="0" font-family="Inter, sans-serif" font-size="13" fill="#64748b">Document Type</text>
      <text x="350" y="0" font-family="Inter, sans-serif" font-size="14" font-weight="600" fill="#1e293b">1099-DIV</text>
      <line x1="0" y1="10" x2="680" y2="10" stroke="#e2e8f0" stroke-width="1"/>
    </g>
    <g transform="translate(60, 238)">
      <text x="0" y="0" font-family="Inter, sans-serif" font-size="13" fill="#64748b">Client</text>
      <text x="350" y="0" font-family="Inter, sans-serif" font-size="14" font-weight="600" fill="#1e293b">Robert Chen</text>
      <line x1="0" y1="10" x2="680" y2="10" stroke="#e2e8f0" stroke-width="1"/>
    </g>
    <g transform="translate(60, 276)">
      <text x="0" y="0" font-family="Inter, sans-serif" font-size="13" fill="#64748b">Tax Year</text>
      <text x="350" y="0" font-family="Inter, sans-serif" font-size="14" font-weight="600" fill="#1e293b">2025</text>
      <line x1="0" y1="10" x2="680" y2="10" stroke="#e2e8f0" stroke-width="1"/>
    </g>
  <rect x="60" y="334" width="680" height="30" fill="#f1f5f9" rx="4"/>
  <text x="80" y="354" font-family="Inter, sans-serif" font-size="10" fill="#94a3b8">This document was processed by TaxDox AI · GLM-4.6V · Confidence: 97%</text>
</svg>